<?xml version="1.0" encoding="UTF-8" standalone="no"?>
<svg
   id="Logo"
   viewBox="0 0 150 150"
   version="1.1"
   sodipodi:docname="Logo.svg"
   width="150"
   height="150"
   inkscape:version="1.3.2 (091e20ef0f, 2023-11-25)"
   inkscape:export-filename="Logo.png"
   inkscape:export-xdpi="96"
   inkscape:export-ydpi="96"
   xmlns:inkscape="http://www.inkscape.org/namespaces/inkscape"
   xmlns:sodipodi="http://sodipodi.sourceforge.net/DTD/sodipodi-0.dtd"
   xmlns="http://www.w3.org/2000/svg"
   xmlns:svg="http://www.w3.org/2000/svg">
  <sodipodi:namedview
     id="namedview1"
     pagecolor="#ffffff"
     bordercolor="#000000"
     borderopacity="0.25"
     inkscape:showpageshadow="2"
     inkscape:pageopacity="0.0"
     inkscape:pagecheckerboard="0"
     inkscape:deskcolor="#d1d1d1"
     inkscape:zoom="3.5537962"
     inkscape:cx="35.736433"
     inkscape:cy="72.598423"
     inkscape:window-width="1920"
     inkscape:window-height="1008"
     inkscape:window-x="0"
     inkscape:window-y="0"
     inkscape:window-maximized="1"
     inkscape:current-layer="g1" />
  <defs
     id="defs1" />
  <g
     transform="translate(-30.012,-54.087057)"
     id="g1">
    <rect
       style="fill:#232323;fill-opacity:1"
       id="rect1"
       width="181.49165"
       height="171.30779"
       x="-16.550304"
       y="-8.5735779"
       transform="translate(30.012,54.087057)" />
    <path
       fill="#7eb9e5"
       d="m 160.65331,89.093633 c -0.4744,0.869725 -1.38336,1.660355 -2.72748,2.371948 -1.26506,0.790655 -2.45101,1.185974 -3.55793,1.185974 -0.94879,0 -1.77921,-0.15813 -2.4908,-0.47439 l -17,35.322905 h -6.3102 c -0.0675,-0.0239 -0.13523,-0.0475 -0.20981,-0.0475 -0.71159,0 -1.06712,0.35553 -1.06712,1.06712 v 0.59324 c 0,0.2372 0.0393,0.51366 0.11834,0.82993 v 1.42317 c 0,9.64604 -3.6369,18.18536 -10.91096,25.61755 -7.19499,7.35314 -15.65527,11.02982 -25.38037,11.02982 -11.148295,0 -20.240539,-3.75575 -27.277405,-11.26701 -6.878735,-7.27406 -10.318233,-16.48516 -10.318233,-27.63346 0,-10.4367 3.75575,-19.48967 11.267012,-27.15906 7.511262,-7.669395 16.44538,-11.504208 26.803016,-11.504208 9.25071,0 16.60409,2.925331 22.05964,8.776209 5.29741,5.534619 7.94577,13.006329 7.94577,22.415169 0,0.79066 -0.0393,1.62108 -0.11834,2.4908 0,0.79066 -0.0398,1.58129 -0.11886,2.37195 -0.47439,3.2417 -1.46242,6.28537 -2.96467,9.13174 -1.81852,3.39984 -4.11135,6.36496 -6.87865,8.89507 -3.47891,3.16263 -6.80008,4.74389 -9.96271,4.74389 -3.162635,0 -4.743895,-1.34406 -4.743895,-4.03231 0,-4.11143 1.89751,-9.88303 5.692675,-17.31522 l 10.08104,-19.68773 -0.23719,-0.23719 c -2.37198,1.81852 -4.38782,2.728 -6.04822,2.728 -0.79066,0 -1.30483,-0.15813 -1.54202,-0.47439 h -0.2372 l -7.353035,14.23169 c 0.86973,-2.76731 1.30431,-5.17899 1.30431,-7.2347 0,-4.74396 -1.93678,-7.11585 -5.81101,-7.11585 -4.427692,0 -9.053135,2.21376 -13.876156,6.64146 -4.348626,4.11142 -7.194894,8.49968 -8.539014,13.16457 -0.711593,2.68824 -1.067635,5.25804 -1.067635,7.70909 0,3.0045 0.553441,5.49525 1.660364,7.47189 1.34412,2.60918 3.320695,3.91346 5.929871,3.91346 5.455548,0 10.950684,-5.33701 16.485298,-16.01091 -0.316263,1.18599 -0.474389,2.72797 -0.474389,4.62556 0,8.77631 3.281371,13.16457 9.843836,13.16457 5.37649,0 10.39725,-2.56981 15.06214,-7.70909 4.26956,-4.74396 6.87864,-9.92284 7.82743,-15.53652 0.15813,-0.86973 0.27699,-1.77869 0.35605,-2.72748 0.0791,-0.94879 0.11834,-1.89755 0.11834,-2.84634 0,-9.9623 -3.32065,-17.94818 -9.96218,-23.957193 -6.40434,-5.929944 -14.58763,-8.895065 -24.549929,-8.895065 -11.859889,0 -21.822342,3.676687 -29.887065,11.029818 -8.380988,7.66939 -12.571326,17.31559 -12.571326,28.93828 0,12.80868 3.874086,22.77114 11.622547,29.88707 7.590327,6.7206 17.869033,10.08052 30.835844,10.08052 10.357629,0 19.252479,-3.71596 26.684679,-11.14816 1.44704,-1.40181 2.75366,-2.85748 3.92483,-4.36562 -0.62937,2.36125 -0.96274,4.51349 -0.96274,6.42958 0,5.53461 2.80648,8.30182 8.42016,8.30182 4.26957,0 8.46042,-2.25304 12.57185,-6.7598 1.66038,-1.81851 3.12278,-3.79561 4.38784,-5.93038 1.34412,-2.13479 2.60965,-4.38782 3.79563,-6.7598 0.15813,-0.39533 0.0786,-0.63248 -0.23771,-0.71158 -0.2372,-0.15813 -0.4346,-0.0398 -0.59273,0.35553 -1.02784,2.13478 -2.29285,4.38834 -3.79511,6.76031 -1.50225,2.37198 -2.80706,4.15116 -3.91398,5.33715 -4.03236,4.42768 -8.0253,6.64145 -11.97859,6.64145 -2.53011,0 -3.79512,-1.62105 -3.79512,-4.86275 0,-4.58583 2.41168,-11.10878 7.2347,-19.56883 l 8.06462,-14.23169 h 8.65787 l 0.2372,-0.2372 v -0.71158 l -0.11886,-0.11886 h -8.18296 L 161.00936,89.211972 Z M 93.133394,111.32277 c 2.925441,0 4.387851,2.21427 4.387851,6.64197 0,3.87422 -1.06709,7.70852 -3.201877,11.50369 -7.036866,12.49242 -12.729918,18.73891 -17.078544,18.73891 -1.897582,0 -2.846338,-1.70012 -2.846338,-5.09995 0,-3.79516 0.83042,-8.06457 2.490805,-12.80852 0.632527,-1.89759 1.46243,-3.7951 2.490287,-5.69268 1.027857,-1.89758 2.292864,-3.83489 3.795117,-5.81153 3.557966,-4.98115 6.879128,-7.47189 9.962699,-7.47189 z m 36.137336,17.24494 h 5.01365 c -2.28534,4.0859 -3.92239,7.00501 -5.29787,9.45317 0.36377,-2.10998 0.55655,-4.28586 0.55655,-6.53604 0,-1.28074 -0.0929,-2.24657 -0.27233,-2.91713 z"
       id="path1" />
  </g>
</svg>
